<svg version="1.1" id="Layer_1" xmlns="http://www.w3.org/2000/svg"
	xmlns:xlink="http://www.w3.org/1999/xlink" x="0px" y="0px"
	viewBox="0 0 61.8 63.5" style="enable-background:new 0 0 61.8 63.5;" xml:space="preserve"
	fill="currentColor">
<style type="text/css">
	
</style>
<path d="M61.8,63.5H0V0h61.8V63.5z M0.6,62.8h60.5V0.6H0.6V62.8z"/>
<g>
	<path d="M27.1,49.3c0-0.2,0-0.3,0-0.5c0-5,0-9.9,0-14.9c0-0.6,0-0.6-0.6-0.6c-1.4,0-2.9,0-4.3,0
		c-0.3,0-0.4-0.1-0.4-0.4c0-1.8,0-3.7,0-5.5c0-0.4,0.1-0.4,0.5-0.4c1.5,0,3,0,4.5,0c0.3,0,0.4-0.1,0.4-0.4c0-1.3,0-2.6,0-4
		c0-1.3,0.2-2.6,0.6-3.8c1-2.6,2.9-4,5.6-4.5c1.4-0.3,2.8-0.2,4.1-0.1c0.7,0,1.5,0.1,2.2,0.2c0.3,0,0.4,0.1,0.4,0.4c0,1.7,0,3.3,0,5
		c0,0.3-0.1,0.3-0.4,0.3c-0.9,0-1.7,0-2.6,0c-0.5,0-1,0-1.5,0.1c-1.1,0.2-1.7,0.9-1.8,2c-0.2,1.5,0,3.1-0.1,4.6
		c0,0.3,0.2,0.2,0.4,0.2c1.5,0,3,0,4.5,0c0.3,0,0.7,0,1,0c0.3,0,0.4,0.1,0.3,0.4c-0.3,1.9-0.5,3.7-0.7,5.6c0,0.3-0.2,0.4-0.5,0.4
		c-1.5,0-3,0-4.5,0c-0.5,0-0.5,0-0.5,0.5c0,5,0,10,0,15c0,0.2,0,0.3,0,0.5C31.5,49.3,29.3,49.3,27.1,49.3z"/>
</g>
<g>
</g>
<g>
</g>
<g>
</g>
<g>
</g>
<g>
</g>
<g>
</g>
</svg>