<svg version="1.1" id="Layer_1" xmlns="http://www.w3.org/2000/svg"
	xmlns:xlink="http://www.w3.org/1999/xlink" x="0px" y="0px"
	viewBox="0 0 61.8 63.5" style="enable-background:new 0 0 61.8 63.5;" xml:space="preserve"
	fill="currentColor"
>
<g>
	<path d="M24.7,14.2c4.1,0,8.3,0,12.4,0c0.1,0.1,0.3,0,0.4,0c1,0,2,0.1,2.9,0.3c3.1,0.6,5.5,2.3,6.9,5.2
		c0.8,1.6,1,3.3,1.1,5c0,4.6,0,9.2,0,13.8c0,1-0.1,2.1-0.3,3.1c-0.8,3.6-3,6-6.5,7.1c-1.6,0.5-3.3,0.6-5,0.6c-3.7,0-7.4,0-11.1,0
		c-1.3,0-2.7-0.1-4-0.3c-2.8-0.5-5-1.9-6.5-4.4c-1-1.7-1.4-3.6-1.5-5.6c-0.1-2.1-0.1-4.2-0.1-6.3c0-0.2,0-0.4,0-0.5
		c0-0.3,0-0.5,0-0.8c0-0.2,0-0.4,0-0.6c0-2.6-0.1-5.1,0.2-7.7c0.2-1.8,0.8-3.5,1.9-5c1.9-2.5,4.5-3.5,7.5-3.8
		C23.5,14.2,24.1,14.2,24.7,14.2z M30.9,46.1c2,0,4.1,0,6.1-0.1c1,0,2-0.1,2.9-0.3c2.5-0.5,4.2-2,4.9-4.5c0.3-1.2,0.4-2.4,0.4-3.6
		c0-2.9,0-5.8,0-8.7c0-1.9,0-3.8-0.2-5.7c-0.4-2.9-2.1-4.8-5-5.4c-1.4-0.3-2.7-0.3-4.1-0.3c-3.3,0-6.6,0-9.9,0c-1.3,0-2.6,0-3.9,0.3
		c-2.7,0.5-4.5,2.2-5.1,4.8c-0.3,1.2-0.3,2.4-0.3,3.7c0,3.7,0,7.4,0,11c0,1.1,0,2.3,0.3,3.4c0.5,2.6,2,4.3,4.6,5
		c1.1,0.3,2.2,0.3,3.3,0.4C26.9,46,28.9,46.1,30.9,46.1z"/>
	<path d="M30.9,40.8c-5,0-9-4.1-9-9.1c0-5,4.1-9,9.1-9c5,0,9.1,4.1,9,9.1C40,36.7,35.9,40.8,30.9,40.8z M31,37.5
		c3.2,0,5.8-2.6,5.8-5.8c0-3.2-2.6-5.8-5.8-5.8c-3.2,0-5.8,2.6-5.8,5.8C25.1,34.9,27.7,37.5,31,37.5z"/>
	<path d="M40.3,24.5c-1.2,0-2.1-0.9-2.1-2.1c0-1.2,0.9-2.1,2.1-2.1c1.1,0,2.1,1,2.2,2.1C42.5,23.5,41.5,24.5,40.3,24.5z
		"/>
</g>
<path d="M61.8,63.5H0V0h61.8V63.5z M0.6,62.8h60.5V0.6H0.6V62.8z"/>
<g>
</g>
<g>
</g>
<g>
</g>
<g>
</g>
<g>
</g>
<g>
</g>
</svg>