<?xml version="1.0" encoding="utf-8"?>
<!-- Generator: Adobe Illustrator 22.0.0, SVG Export Plug-In . SVG Version: 6.00 Build 0)  -->
<svg version="1.1" id="Layer_1" xmlns="http://www.w3.org/2000/svg" xmlns:xlink="http://www.w3.org/1999/xlink" x="0px" y="0px"
	 viewBox="0 0 661.2 149.3" style="enable-background:new 0 0 661.2 149.3;" xml:space="preserve">
<style type="text/css">
	.st0{fill:#191815;}
</style>
<g>
	<g>
		<path class="st0" d="M125.3,71.1c-3.5-6.1-8.5-10.9-14.7-14.4c-6.2-3.5-13.2-5.2-20.8-5.2c-7.6,0-14.6,1.8-20.8,5.2
			c-6.2,3.5-11.1,8.3-14.7,14.4c-3.5,6.1-5.3,13-5.3,20.5c0,7.5,1.8,14.4,5.3,20.5c3.5,6.1,8.5,10.9,14.7,14.4
			c6.2,3.5,13.2,5.2,20.8,5.2c7.6,0,14.6-1.8,20.8-5.2c6.2-3.5,11.1-8.3,14.7-14.4c3.5-6.1,5.3-13,5.3-20.5S128.8,77.2,125.3,71.1
			 M89.8,54.1c7.1,0,13.6,1.6,19.4,4.9c5.8,3.2,10.4,7.8,13.7,13.5c3.3,5.7,5,12.2,5,19.2c0,7-1.7,13.5-5,19.2
			c-1.7,2.9-3.6,5.4-5.9,7.7c-2.3,2.3-4.9,4.2-7.8,5.8c-5.8,3.2-12.3,4.9-19.4,4.9c-7.1,0-13.6-1.6-19.4-4.9
			c-5.8-3.2-10.4-7.8-13.7-13.5c-3.3-5.7-5-12.1-5-19.2c0-7,1.7-13.5,5-19.2C60,66.7,64.7,62.2,70.4,59
			C76.2,55.7,82.7,54.1,89.8,54.1"/>
		<path class="st0" d="M146.2,149.3H33.4V33.9h112.8V149.3z M34.6,148.2h110.5V35H34.6V148.2z"/>
		<path class="st0" d="M112.2,115.2H0V0h112.2V115.2z M1.1,114.1h109.9V1.1H1.1V114.1z"/>
		<polygon class="st0" points="91.2,17.9 91.2,97.3 88.9,97.3 88.8,97.3 23.8,22.9 23.8,97.3 21,97.3 21,17.9 23.3,17.9 23.4,18 
			88.4,92.4 88.4,17.9 		"/>
	</g>
	<g>
		<polygon class="st0" points="413.2,95 413.2,91.3 413.2,82.6 413.2,77.1 437.5,77.1 437.5,71.7 413.2,71.7 413.2,67.1 413.2,58.2 
			413.2,54.5 439,54.5 439,48.9 406.8,48.9 406.8,57.3 406.8,66.1 406.8,83.5 406.8,92.3 406.8,100.6 439,100.6 439,95 430.9,95 		
			"/>
		<path class="st0" d="M487.1,75.4c-2.4-1.3-5.7-2.7-9.8-4c-2.9-0.9-5.2-1.8-7.1-2.7c-1.8-0.9-3.2-1.8-4-2.9
			c-0.8-1.1-1.3-2.5-1.3-4.1c0-1.9,0.5-3.4,1.5-4.6c1-1.2,2.3-2.1,4-2.7c1.6-0.6,3.4-0.9,5.4-0.9c1.4,0,2.9,0.2,4.5,0.5
			c1.6,0.3,3.3,0.8,4.9,1.5c1.6,0.7,3.2,1.5,4.7,2.5l0.7-6.2c-0.8-0.5-1.8-1-2.9-1.4c-1.1-0.5-2.4-0.9-3.8-1.3
			c-1.4-0.4-2.8-0.7-4.3-0.9c-1.5-0.2-3-0.3-4.6-0.3c-3.7,0-6.9,0.6-9.4,1.8c-2.5,1.2-4.4,2.9-5.7,5c-1.3,2.1-1.9,4.5-1.9,7.2
			c0,2.8,0.6,5,1.8,6.8c1.2,1.8,3,3.3,5.3,4.5c2.3,1.2,5.1,2.3,8.4,3.4c2.8,0.9,5.2,1.7,7.2,2.6c2,0.9,3.5,1.9,4.5,3.1
			c1,1.2,1.6,2.7,1.6,4.6c0,2.1-0.5,3.8-1.5,5.1c-1,1.3-2.4,2.2-4.1,2.8c-1.7,0.6-3.7,0.9-5.8,0.9c-1.9,0-3.8-0.2-5.6-0.5
			c-1.8-0.4-3.6-0.9-5.4-1.5c-1.8-0.7-3.4-1.4-5.1-2.3l-0.6,6.2c1.1,0.6,2.6,1.2,4.5,1.8c1.8,0.6,3.9,1.1,6.1,1.5
			c2.2,0.4,4.4,0.6,6.5,0.6c4.2,0,7.6-0.6,10.2-2c2.6-1.3,4.6-3.1,5.8-5.3c1.2-2.2,1.9-4.8,1.9-7.6c0-2.6-0.5-4.7-1.5-6.5
			C491.2,78.3,489.5,76.8,487.1,75.4"/>
		<polygon class="st0" points="514.4,57.2 514.4,66.2 514.4,83.5 514.4,92.3 514.4,100.6 521,100.6 521,92.3 521,83.5 521,66.2 
			521,57.2 521,48.9 514.4,48.9 		"/>
		<path class="st0" d="M580.7,79.9v6v5.7v2.6c-0.7,0.2-1.5,0.5-2.2,0.7c-1.3,0.3-2.7,0.5-4,0.6c-1.4,0.1-2.7,0.2-4.1,0.2
			c-3.7,0-6.9-0.5-9.5-1.6c-2.7-1.1-4.9-2.6-6.6-4.5c-1.7-1.9-3-4.2-3.8-6.8c-0.8-2.6-1.3-5.3-1.3-8.3c0-3.3,0.5-6.2,1.4-8.8
			c1-2.6,2.3-4.8,4.1-6.6c1.8-1.8,3.9-3.2,6.3-4.1c2.4-0.9,5.1-1.4,7.9-1.4c1.7,0,3.4,0.2,5.2,0.5c1.8,0.3,3.6,0.8,5.5,1.5
			c1.9,0.7,3.8,1.6,5.8,2.7l0.6-6.3c-0.9-0.5-2-1-3.3-1.4c-1.3-0.5-2.7-0.9-4.2-1.4c-1.5-0.4-3.1-0.8-4.8-1
			c-1.7-0.2-3.5-0.4-5.3-0.4c-5.3,0-9.9,1.1-13.8,3.4c-3.9,2.3-6.9,5.4-9.1,9.5c-2.1,4-3.2,8.6-3.2,13.9c0,3.8,0.6,7.3,1.8,10.6
			c1.2,3.3,3,6.1,5.3,8.5c2.3,2.4,5.2,4.3,8.6,5.6c3.4,1.3,7.4,2,11.9,2c1.7,0,3.4-0.1,5.1-0.3c1.7-0.2,3.2-0.4,4.7-0.7
			c1.5-0.3,2.9-0.6,4.1-1c1.2-0.4,2.2-0.7,3.1-1.1v-6.6V86v-6v-5.3h-6.2V79.9z"/>
		<path class="st0" d="M379,55.8c-2.1-2.2-4.7-3.9-7.8-5c-3.1-1.1-6.7-1.8-10.7-1.8h-18.2v5.5h17.1c3.3,0,6.2,0.5,8.6,1.4
			c2.4,1,4.4,2.3,6,4.1c1.6,1.8,2.7,3.9,3.5,6.4c0.7,2.5,1.1,5.3,1.1,8.3c0,3.9-0.7,7.4-1.9,10.6c-1.3,3.1-3.4,5.6-6.4,7.4
			c-2.9,1.8-6.8,2.7-11.8,2.7H349v-0.1h-0.3v-3.6V86v-6v-5.3h-6.2v5.3v6v5.7v6.7v2.5h16.2c4.9,0,9.1-0.7,12.5-2
			c3.4-1.3,6.2-3.2,8.3-5.6c2.1-2.4,3.6-5.1,4.6-8.3c1-3.1,1.5-6.5,1.5-10.2c0-4-0.5-7.6-1.6-10.8C382.8,60.8,381.1,58.1,379,55.8"
			/>
		<polygon class="st0" points="212.2,90.1 211.6,90.1 173.7,48.9 166.8,48.9 166.8,100.6 173.1,100.6 173.1,59.2 174.5,59.2 
			212.4,100.6 218.4,100.6 218.4,48.9 212.2,48.9 		"/>
		<polygon class="st0" points="655,90.1 654.4,90.1 616.5,48.9 609.6,48.9 609.6,100.6 615.9,100.6 615.9,59.2 617.3,59.2 
			655.2,100.6 661.2,100.6 661.2,48.9 655,48.9 		"/>
		<path class="st0" d="M289.5,74.7c0-3.7-0.6-7.2-1.7-10.4c-1.1-3.2-2.8-6.1-5-8.5c-2.2-2.4-4.9-4.3-8.1-5.7
			c-3.2-1.4-7-2.1-11.2-2.1c-5.5,0-10.3,1.2-14.1,3.6c-3.8,2.4-6.8,5.6-8.9,9.6c-2,4-3.1,8.6-3.1,13.7c0,3.6,0.5,7,1.6,10.2
			c1.1,3.2,2.7,6.1,4.9,8.6c2.2,2.4,4.9,4.4,8.2,5.8c3.3,1.4,7.2,2.1,11.5,2.1c5.4,0,10-1.2,13.9-3.5c3.8-2.3,6.8-5.5,8.8-9.5
			C288.5,84.4,289.5,79.8,289.5,74.7 M282.1,82.7c-0.8,2.6-2,4.9-3.5,6.9c-1.6,2-3.7,3.6-6.1,4.8c-2.5,1.2-5.4,1.8-8.8,1.8
			c-3.4,0-6.3-0.6-8.8-1.8c-2.5-1.2-4.6-2.8-6.2-4.8c-1.6-2-2.8-4.3-3.6-6.9c-0.8-2.6-1.2-5.3-1.2-8.2c0-2.8,0.4-5.5,1.2-8.1
			c0.8-2.6,2-4.9,3.7-6.9c1.6-2,3.7-3.6,6.2-4.8c2.5-1.2,5.4-1.8,8.7-1.8c3.2,0,6.1,0.6,8.5,1.7c2.4,1.1,4.5,2.7,6.2,4.6
			c1.6,2,2.9,4.3,3.7,6.9c0.8,2.6,1.2,5.4,1.2,8.4C283.2,77.4,282.8,80.1,282.1,82.7"/>
	</g>
</g>
</svg>
