<svg xmlns="http://www.w3.org/2000/svg" version="1.1" xmlns:xlink="http://www.w3.org/1999/xlink" xmlns:svgjs="http://svgjs.dev/svgjs" width="1000" height="1000"><g clip-path="url(#SvgjsClipPath1071)"><rect width="1000" height="1000" fill="#ffffff"></rect><g transform="matrix(4.8721071863581,0,0,4.8721071863581,108.33258738662954,99.99998190562701)"><svg xmlns="http://www.w3.org/2000/svg" version="1.1" xmlns:xlink="http://www.w3.org/1999/xlink" xmlns:svgjs="http://svgjs.dev/svgjs" width="160.7" height="164.2"><svg version="1.1" id="Layer_1" xmlns="http://www.w3.org/2000/svg" xmlns:xlink="http://www.w3.org/1999/xlink" x="0px" y="0px" viewBox="0 0 160.7 164.2" style="enable-background:new 0 0 160.7 164.2;" xml:space="preserve">
<style type="text/css">
	.st0{fill:#191815;}
</style>
<g>
	<path class="st0" d="M132.5,78.5c-3.5-6.1-8.5-10.9-14.7-14.4c-6.2-3.5-13.2-5.2-20.8-5.2c-7.6,0-14.6,1.8-20.8,5.2
		c-6.2,3.5-11.1,8.3-14.7,14.4c-3.5,6.1-5.3,13-5.3,20.5c0,7.5,1.8,14.4,5.3,20.5c3.5,6.1,8.5,10.9,14.7,14.4
		c6.2,3.5,13.2,5.2,20.8,5.2c7.6,0,14.6-1.8,20.8-5.2c6.2-3.5,11.1-8.3,14.7-14.4c3.5-6.1,5.3-13,5.3-20.5S136.1,84.6,132.5,78.5
		 M97.1,61.5c7.1,0,13.6,1.6,19.4,4.9c5.8,3.2,10.4,7.8,13.7,13.5c3.3,5.7,5,12.2,5,19.2c0,7-1.7,13.5-5,19.2
		c-1.7,2.9-3.6,5.4-5.9,7.7c-2.3,2.3-4.9,4.2-7.8,5.8c-5.8,3.2-12.3,4.9-19.4,4.9c-7.1,0-13.6-1.6-19.4-4.9
		c-5.8-3.2-10.4-7.8-13.7-13.5c-3.3-5.7-5-12.1-5-19.2c0-7,1.7-13.5,5-19.2c3.3-5.7,7.9-10.2,13.7-13.5C83.5,63.1,90,61.5,97.1,61.5
		"></path>
	<polygon class="st0" points="98.5,25.3 98.5,104.8 96.1,104.8 96.1,104.7 31.1,30.3 31.1,104.8 28.2,104.8 28.2,25.3 30.6,25.3 
		30.7,25.4 95.7,99.8 95.7,25.3 	"></polygon>
	<path class="st0" d="M153.5,156.8H40.7V41.3h112.8V156.8z M41.8,155.6h110.5V42.4H41.8V155.6z"></path>
	<path class="st0" d="M119.5,122.7H7.3V7.4h112.2V122.7z M8.4,121.5h109.9V8.6H8.4V121.5z"></path>
</g>
</svg></svg></g></g><defs><clipPath id="SvgjsClipPath1071"><rect width="1000" height="1000" x="0" y="0" rx="150" ry="150"></rect></clipPath></defs></svg>